<?xml version="1.0" encoding="UTF-8"?>
<svg width="731px" height="685px" viewBox="0 0 731 685" version="1.1" xmlns="http://www.w3.org/2000/svg" xmlns:xlink="http://www.w3.org/1999/xlink">
    <!-- Generator: Sketch 43.2 (39069) - http://www.bohemiancoding.com/sketch -->
    <title>Artboard</title>
    <desc>Created with Sketch.</desc>
    <defs></defs>
    <g id="Ballot" stroke="none" stroke-width="1" fill="none" fill-rule="evenodd">
        <g id="Artboard">
            <path d="M363.5,337.700507 L499.500035,337.700507 C499.500035,337.700507 544.807933,338.374366 580.971457,337.700507 C588.848284,337.553733 600.793124,337.700507 600.793124,337.700507 C600.793124,337.700507 613.294944,337.645898 613.841112,337.700507 C614.189361,337.735327 618.079698,337.293533 620.663236,334.832826 C622.131535,333.434336 623,332.108245 623,328.038214 C623,239.099264 506.817893,167 363.5,167 C220.182107,167 104,239.099264 104,328.038214 C104,337.778794 106.343816,338.079088 115.385616,337.700507 C118.807066,337.55725 121.971668,337.652586 124.412288,337.700507 C126.406925,337.739671 128.082636,337.687577 129.725144,337.700507 C131.384023,337.713566 133.00897,337.79101 134.88125,337.700507 C143.706722,337.273898 152.094219,337.629883 160.341527,337.700507 C168.588834,337.771131 180.915856,337.700507 180.915856,337.700507 L363.5,337.700507 Z" id="Oval" fill="#F6E660"></path>
            <path d="M106,392 L625,392 L625,438.991529 C625,447.280479 618.28389,454 609.992353,454 L121.007647,454 C112.719153,454 106,447.276473 106,438.991529 L106,392 Z" id="Rectangle-2" fill="#F6E660"></path>
            <rect id="Rectangle" fill="#A94F4F" x="96" y="330" width="540" height="62" rx="11"></rect>
            <path d="M122.949271,307.331522 C127.501548,307.009167 164.974508,306.783941 169.877424,307.331522 C174.780339,307.879103 186.971761,320.476985 217.545635,319.545429 C234.452006,319.030309 253.785562,307.725129 271.972996,307.331522 C287.627196,306.992738 307.088578,315.318588 319.039342,314.292299 C330.77698,313.284312 359.793294,319.545429 372.763344,314.292299 C385.733394,309.039168 399.640106,322.132688 408.210021,322.132688 C427.308516,322.132688 444.283488,318.181523 461.904421,314.292299 C479.525354,310.403074 506.81565,305.971756 508.777598,307.331522 C518.363408,313.975152 528.003458,306.708427 537.992603,309.831119 C552.263423,314.292299 567.683789,309.828585 576.951767,309.831119 C619.994852,309.842888 628.246081,316.010907 628.246081,316.010907 C633.404265,317.96297 639.223833,323.704453 641.252225,328.854608 L646.957086,343.339445 C648.981997,348.480762 646.534762,350.810922 641.467383,348.624739 C641.467383,348.624739 623.643359,340.148624 614.986534,340.148624 C594.07883,340.148624 576.423154,352.648624 552.263423,340.148624 C550.268922,339.116689 524.735636,352.648624 513.537497,352.648624 C500.172749,352.648624 491.93951,340.148624 478.574763,340.148624 C469.950617,340.148624 466.184073,348.835596 452.046845,340.148624 C446.603057,336.803552 442.262459,352.329373 438.260616,352.648624 C434.258774,352.967875 426.461335,340.148624 419.695726,340.148624 C401.051896,340.148624 406.297147,352.648624 387.653317,352.648624 C368.781126,352.648624 326.019853,340.148624 307.147662,340.148624 C293.940794,340.148624 285.179864,352.648624 271.972996,352.648624 C258.110647,352.648624 245.507151,340.148624 231.644802,340.148624 C212.957273,340.148624 197.995409,352.648624 179.307881,352.648624 C169.08098,352.648624 148.916154,340.148624 138.689253,340.148624 C127.032334,340.148624 123.850607,352.648624 113.404634,352.648624 C102.95866,352.648624 88.1979673,352.648624 88.1979673,352.648624 C82.6733567,352.648624 81.3921682,349.515772 85.1284874,345.449826 C85.1284874,345.449826 100.006084,332.841217 94.5564064,322.132688 C89.106729,311.424158 67.4267218,311.263171 122.949271,307.331522 Z" id="Rectangle-3" fill="#63C255"></path>
        </g>
    </g>
</svg>